<mxfile host="65bd71144e">
    <diagram name="第 1 页" id="Sx-POFTGexlg5zIO2r_u">
        <mxGraphModel dx="1386" dy="779" grid="1" gridSize="10" guides="1" tooltips="1" connect="1" arrows="1" fold="1" page="1" pageScale="1" pageWidth="2336" pageHeight="1654" math="0" shadow="0">
            <root>
                <mxCell id="0"/>
                <mxCell id="1" parent="0"/>
                <mxCell id="13" value="系统" style="swimlane;childLayout=stackLayout;resizeParent=1;resizeParentMax=0;startSize=20;html=1;rounded=0;" vertex="1" parent="1">
                    <mxGeometry x="360" y="20" width="480" height="720" as="geometry"/>
                </mxCell>
                <mxCell id="14" value="履信管理用户" style="swimlane;startSize=20;html=1;rounded=0;" vertex="1" parent="13">
                    <mxGeometry y="20" width="160" height="700" as="geometry"/>
                </mxCell>
                <mxCell id="15" value="协会用户" style="swimlane;startSize=20;html=1;rounded=0;" vertex="1" parent="13">
                    <mxGeometry x="160" y="20" width="160" height="700" as="geometry"/>
                </mxCell>
                <mxCell id="16" value="厂商用户" style="swimlane;startSize=20;html=1;rounded=0;" vertex="1" parent="13">
                    <mxGeometry x="320" y="20" width="160" height="700" as="geometry"/>
                </mxCell>
            </root>
        </mxGraphModel>
    </diagram>
</mxfile>